<?xml version="1.0" encoding="utf-8"?>
<!-- Generator: Adobe Illustrator 17.0.0, SVG Export Plug-In . SVG Version: 6.00 Build 0)  -->
<!DOCTYPE svg PUBLIC "-//W3C//DTD SVG 1.1//EN" "http://www.w3.org/Graphics/SVG/1.1/DTD/svg11.dtd">
<svg version="1.1" id="Layer_1" xmlns="http://www.w3.org/2000/svg" xmlns:xlink="http://www.w3.org/1999/xlink" x="0px" y="0px"
	 width="300px" height="370px" enable-background="new 0 0 197.352 115.204"
	 xml:space="preserve">
 <filter id="dropshadow" width="200%" height="200%">
  <feGaussianBlur in="SourceAlpha" stdDeviation="3"/> 
  <feOffset dx="5" dy="5"/>
  <feComponentTransfer>
    <feFuncA type="linear" slope="0.5"/>
  </feComponentTransfer>
  <feMerge> 
    <feMergeNode/>
    <feMergeNode in="SourceGraphic"/> 
  </feMerge>
 </filter>
 <g  transform="matrix(1 0 0 1 80 10)" filter="url(#dropshadow)">
	<rect height="300" width="200" y="0" x="0" stroke-width="5" stroke="#000000" fill="#2196f3"/>
	<rect height="100" width="180" y="20" x="10" stroke-width="5" stroke="#000000" fill="lightgray"/>
	<text x="120" y="100" style="font-size: 44px;">
	    0V
	</text>

	<circle cx="100" cy="200" r="50" stroke="black" stroke-width="3" fill="black" />
	<path fill="none" stroke="white" d="M 130 160 L 70 240" stroke-width="4" stroke-linecap="round" class="cl_wire"></path>

	<circle cx="50" cy="260" r="12" stroke="red" stroke-width="3" fill="white" />
	<circle cx="150" cy="260" r="12" stroke="black" stroke-width="3" fill="white" />
	<path fill="none" stroke="red" d="M 50 260 L 50 320 L -20 320 L -20 190 L -60 190" stroke-width="6" stroke-linecap="round" class="cl_wire"></path>
	<circle cx="50" cy="260" r="4" stroke="black" stroke-width="3" fill="red" />
	<circle cx="-60" cy="190" r="4" stroke="black" stroke-width="3" fill="red" />
	<path fill="none" stroke="#000000" d="M 150 260 L 150 350 L -60 350" stroke-width="6" stroke-linecap="round" class="cl_wire"></path>
	<circle cx="150" cy="260" r="4" stroke="black" stroke-width="3" fill="black" />
	<circle cx="-60" cy="350" r="4" stroke="black" stroke-width="3" fill="black" />
  </g>
</svg>
